<svg width="15" height="16" viewBox="0 0 15 16" fill="none" xmlns="http://www.w3.org/2000/svg">
<path d="M11.505 2.63619C11.327 2.63619 11.153 2.68981 11.005 2.79028C10.857 2.89074 10.7417 3.03353 10.6735 3.20059C10.6054 3.36766 10.5876 3.55149 10.6223 3.72885C10.6571 3.9062 10.7427 4.06911 10.8686 4.19698C10.9945 4.32484 11.1548 4.41192 11.3294 4.44719C11.504 4.48247 11.6849 4.46437 11.8494 4.39517C12.0139 4.32597 12.1544 4.20878 12.2533 4.05842C12.3522 3.90808 12.405 3.73131 12.405 3.55048C12.405 3.30799 12.3102 3.07544 12.1414 2.90398C11.9726 2.73252 11.7437 2.63619 11.505 2.63619ZM14.955 4.48C14.9405 3.84785 14.8239 3.2224 14.61 2.62857C14.4193 2.12048 14.1225 1.6604 13.74 1.28C13.3686 0.889471 12.9147 0.589851 12.4125 0.40381C11.8295 0.179932 11.2131 0.0588267 10.59 0.0457143C9.795 2.83832e-09 9.54 0 7.5 0C5.46 0 5.205 2.83832e-09 4.41 0.0457143C3.78686 0.0588267 3.17051 0.179932 2.5875 0.40381C2.08626 0.591733 1.6327 0.891093 1.26 1.28C0.875572 1.65728 0.580632 2.11843 0.3975 2.62857C0.177121 3.22083 0.0579075 3.84697 0.0449999 4.48C-4.19095e-08 5.28762 0 5.54667 0 7.61905C0 9.69143 -4.19095e-08 9.95048 0.0449999 10.7581C0.0579075 11.3911 0.177121 12.0173 0.3975 12.6095C0.580632 13.1197 0.875572 13.5808 1.26 13.9581C1.6327 14.347 2.08626 14.6464 2.5875 14.8343C3.17051 15.0581 3.78686 15.1793 4.41 15.1924C5.205 15.2381 5.46 15.2381 7.5 15.2381C9.54 15.2381 9.795 15.2381 10.59 15.1924C11.2131 15.1793 11.8295 15.0581 12.4125 14.8343C12.9147 14.6482 13.3686 14.3486 13.74 13.9581C14.1241 13.5791 14.4212 13.1186 14.61 12.6095C14.8239 12.0157 14.9405 11.3902 14.955 10.7581C14.955 9.95048 15 9.69143 15 7.61905C15 5.54667 15 5.28762 14.955 4.48ZM13.605 10.6667C13.5995 11.1503 13.5133 11.6295 13.35 12.0838C13.2302 12.4154 13.0379 12.715 12.7875 12.96C12.5442 13.2118 12.2499 13.4068 11.925 13.5314C11.4778 13.6974 11.0061 13.7849 10.53 13.7905C9.78 13.8286 9.5025 13.8362 7.53 13.8362C5.5575 13.8362 5.28 13.8362 4.53 13.7905C4.03567 13.7998 3.54344 13.7226 3.075 13.5619C2.76433 13.4309 2.48352 13.2364 2.25 12.9905C2.00107 12.7457 1.81113 12.4459 1.695 12.1143C1.51189 11.6535 1.41033 11.1634 1.395 10.6667C1.395 9.90476 1.35 9.62286 1.35 7.61905C1.35 5.61524 1.35 5.33333 1.395 4.57143C1.39836 4.077 1.48721 3.58701 1.6575 3.12381C1.78954 2.80222 1.9922 2.51555 2.25 2.28571C2.47786 2.02375 2.75947 1.8157 3.075 1.67619C3.53216 1.5086 4.014 1.42101 4.5 1.41714C5.25 1.41714 5.5275 1.37143 7.5 1.37143C9.4725 1.37143 9.75 1.37143 10.5 1.41714C10.9761 1.42269 11.4478 1.51029 11.895 1.67619C12.2358 1.80469 12.5417 2.0136 12.7875 2.28571C13.0333 2.51976 13.2253 2.80589 13.35 3.12381C13.5167 3.58776 13.603 4.07755 13.605 4.57143C13.6425 5.33333 13.65 5.61524 13.65 7.61905C13.65 9.62286 13.6425 9.90476 13.605 10.6667ZM7.5 3.71048C6.73936 3.71198 5.99622 3.9425 5.36449 4.37289C4.73276 4.80328 4.24079 5.41425 3.95072 6.12857C3.66067 6.8429 3.58554 7.62857 3.73484 8.38621C3.88415 9.14392 4.25118 9.83962 4.78956 10.3855C5.32794 10.9314 6.01351 11.3029 6.75965 11.453C7.50578 11.6033 8.27903 11.5254 8.98162 11.2293C9.68423 10.9333 10.2847 10.4323 10.7071 9.78971C11.1295 9.14712 11.355 8.39177 11.355 7.61905C11.356 7.10484 11.2569 6.59551 11.0634 6.12035C10.87 5.64519 10.5859 5.21357 10.2277 4.85032C9.8694 4.48708 9.44392 4.19938 8.97585 4.00376C8.5077 3.80814 8.00618 3.70846 7.5 3.71048ZM7.5 10.1562C7.00604 10.1562 6.52318 10.0074 6.11246 9.72861C5.70176 9.44983 5.38164 9.05356 5.19261 8.58994C5.00358 8.1264 4.95412 7.61623 5.05049 7.12408C5.14685 6.63192 5.38472 6.17984 5.734 5.82501C6.08328 5.47019 6.52829 5.22855 7.01276 5.13065C7.49723 5.03276 7.99942 5.083 8.45572 5.27503C8.9121 5.46706 9.30217 5.79226 9.5766 6.20949C9.85102 6.62672 9.9975 7.11725 9.9975 7.61905C9.9975 7.95223 9.93293 8.28213 9.80737 8.58994C9.6819 8.89783 9.49792 9.17745 9.26603 9.41311C9.03405 9.64869 8.7588 9.83558 8.45572 9.96305C8.15272 10.0906 7.82797 10.1562 7.5 10.1562Z" fill="#7BC6FE"/>
</svg>
