<svg width="16" height="11" viewBox="0 0 16 11" fill="none" xmlns="http://www.w3.org/2000/svg">
<path d="M15.3105 3.74803C15.3449 2.76398 15.1271 1.78729 14.6774 0.908655C14.3723 0.54813 13.9489 0.304833 13.4809 0.221157C11.5453 0.0475812 9.6016 -0.0235626 7.65829 0.00803211C5.72206 -0.0249961 3.7854 0.0438509 1.85657 0.214282C1.47523 0.282838 1.12232 0.459614 0.840918 0.72303C0.214828 1.29366 0.145263 2.2699 0.0756981 3.0949C-0.0252327 4.57823 -0.0252327 6.06658 0.0756981 7.54992C0.0958233 8.01426 0.165781 8.47516 0.284394 8.92492C0.368272 9.27211 0.537975 9.59338 0.778309 9.85992C1.06162 10.1373 1.42275 10.3241 1.81483 10.3962C3.31459 10.5791 4.82576 10.6549 6.33657 10.623C8.77134 10.6574 10.907 10.623 13.4322 10.4305C13.8339 10.3629 14.2052 10.1758 14.4966 9.89429C14.6913 9.70173 14.8368 9.46605 14.9209 9.20679C15.1697 8.45233 15.2919 7.66274 15.2826 6.86929C15.3105 6.48428 15.3105 4.16053 15.3105 3.74803ZM6.08614 7.28179V3.02615L10.2044 5.16428C9.0496 5.79678 7.52612 6.51178 6.08614 7.28179Z" fill="#7BC6FE"/>
</svg>
